<?xml version="1.0" encoding="UTF-8"?>
<svg xmlns="http://www.w3.org/2000/svg" xmlns:xlink="http://www.w3.org/1999/xlink" width="200pt" height="320pt" viewBox="0 0 200 320" version="1.1">
<g id="surface1">
<path style=" stroke:none;fill-rule:nonzero;fill:rgb(0%,0%,0%);fill-opacity:1;" d="M 89.375 160.1875 L 4.375 75.1875 C -1.5 69.3125 -1.5 59.8125 4.375 54 L 18.5 39.875 C 24.375 34 33.875 34 39.6875 39.875 L 99.9375 100.125 L 160.1875 39.875 C 166.0625 34 175.5625 34 181.375 39.875 L 195.625 53.9375 C 201.5 59.8125 201.5 69.3125 195.625 75.125 L 110.625 160.125 C 104.75 166.0625 95.25 166.0625 89.375 160.1875 Z M 110.625 280.1875 L 195.625 195.1875 C 201.5 189.3125 201.5 179.8125 195.625 174 L 181.5 159.875 C 175.625 154 166.125 154 160.3125 159.875 L 100 220.0625 L 39.75 159.8125 C 33.875 153.9375 24.375 153.9375 18.5625 159.8125 L 4.375 173.9375 C -1.5 179.8125 -1.5 189.3125 4.375 195.125 L 89.375 280.125 C 95.25 286.0625 104.75 286.0625 110.625 280.1875 Z M 110.625 280.1875 "/>
</g>
</svg>
